<svg xmlns="http://www.w3.org/2000/svg" width="224" height="224" viewBox="67 57 92 104">
  <path d="M97.0,158.5 L78.0,158.5 L76.5,157.0 L76.5,63.0 L79.0,60.5 L149.0,60.5 L150.5,62.0 L150.5,80.0 L149.0,81.5 L101.0,81.5 L98.5,84.0 L98.5,103.0 L101.0,105.5 L121.0,105.5 L122.5,107.0 L122.5,123.0 L121.0,124.5 L101.0,124.5 L98.5,127.0 L98.5,157.0 L97.0,158.5 Z" fill="#FD6D0E"/>
  <path d="M149.0,127.5 L132.0,127.5 L130.5,126.0 L130.5,107.0 L132.0,105.5 L149.0,105.5 L150.5,107.0 L150.5,126.0 L149.0,127.5 Z" fill="#FD6D0E"/>
</svg>
